<svg width="17" height="17" viewBox="0 0 17 17" fill="none" xmlns="http://www.w3.org/2000/svg">
<path d="M4.51839 0.608246C5.13187 1.44775 5.85298 2.52404 6.68173 3.83712C6.88622 4.18153 6.85393 4.60666 6.58486 5.11252C6.49876 5.28473 6.24045 5.76367 5.80993 6.54937C5.89604 6.67852 5.99559 6.81306 6.1086 6.95298C6.22161 7.09289 6.3427 7.24088 6.47185 7.39694C6.60101 7.55301 6.74092 7.71176 6.8916 7.8732C7.04229 8.03465 7.20104 8.20416 7.36786 8.38175C7.53469 8.55934 7.70959 8.73962 7.89255 8.92259C8.83969 9.86972 9.62538 10.5693 10.2496 11.0214C10.9492 10.6124 11.4282 10.3433 11.6865 10.2141C11.9555 10.0635 12.2139 9.98811 12.4614 9.98811C12.6551 9.98811 12.822 10.0312 12.9619 10.1173C13.9198 10.6985 15.0068 11.4196 16.223 12.2806C16.4383 12.4528 16.5675 12.6788 16.6105 12.9587C16.6428 13.2493 16.5513 13.5614 16.336 13.895C16.2499 14.0242 16.0831 14.2395 15.8356 14.5408C15.6096 14.8207 15.2678 15.1758 14.8104 15.6063C14.353 16.0369 13.979 16.2521 13.6884 16.2521H13.6561C12.5475 16.2091 11.3152 15.7732 9.95903 14.9444C8.60291 14.1157 7.11763 12.8995 5.50319 11.2958C2.28508 8.06694 0.632978 5.3493 0.546875 3.14291C0.546875 2.85231 0.762133 2.47023 1.19265 1.99666C1.6124 1.54462 1.9622 1.20559 2.24203 0.979566C2.52187 0.764308 2.74789 0.597483 2.92009 0.479091C3.14612 0.317647 3.40981 0.236925 3.71117 0.236925C4.05558 0.236925 4.32465 0.360699 4.51839 0.608246ZM3.48515 1.27016C3.06539 1.57153 2.6564 1.92132 2.25818 2.31955C1.87071 2.70701 1.64469 2.99223 1.58011 3.1752C1.66622 5.11252 3.21338 7.58261 6.22161 10.5855C9.22985 13.5883 11.708 15.1435 13.6561 15.2512C13.8175 15.1866 14.092 14.9552 14.4794 14.557C14.8669 14.1587 15.2167 13.7444 15.5288 13.3138C15.5611 13.2708 15.5826 13.2304 15.5934 13.1928C15.6042 13.1551 15.6042 13.1201 15.5934 13.0878C14.3557 12.2268 13.3117 11.5272 12.4614 10.9891C12.3753 10.9891 12.2677 11.0214 12.1385 11.0859C12.0955 11.1075 11.9233 11.2043 11.6219 11.3765C11.3205 11.5487 11.0246 11.7102 10.734 11.8609L10.2012 12.1837L9.66843 11.8286C8.99037 11.3658 8.15625 10.6285 7.16606 9.61679C6.1974 8.63737 5.4709 7.80324 4.98657 7.11442L4.59911 6.61394L4.92199 6.04889C5.32022 5.32778 5.57853 4.85959 5.69692 4.64433C5.7615 4.51518 5.79379 4.40755 5.79379 4.32145C5.42785 3.74025 5.07267 3.18865 4.72826 2.66665C4.38385 2.14465 4.05558 1.65763 3.74346 1.20559H3.71117C3.62506 1.20559 3.54972 1.22711 3.48515 1.27016Z" fill="white"/>
</svg>
